<mxfile host="app.diagrams.net" modified="2024-01-08T16:02:05.633Z" agent="Mozilla/5.0 (Macintosh; Intel Mac OS X 10_15_7) AppleWebKit/537.36 (KHTML, like Gecko) Chrome/120.0.0.0 Safari/537.36" etag="kGfgC3sriUeCkXasGgEo" version="22.0.0" type="google">
  <diagram name="Страница — 1" id="e3t88kr3ycms4kHiiJJu">
    <mxGraphModel grid="1" page="1" gridSize="10" guides="1" tooltips="1" connect="1" arrows="1" fold="1" pageScale="1" pageWidth="827" pageHeight="1169" math="0" shadow="0">
      <root>
        <mxCell id="0" />
        <mxCell id="1" parent="0" />
        <mxCell id="CfJrtq1wyNXg976miCfc-3" value="" style="edgeStyle=orthogonalEdgeStyle;rounded=0;orthogonalLoop=1;jettySize=auto;html=1;" edge="1" parent="1" target="CfJrtq1wyNXg976miCfc-2">
          <mxGeometry relative="1" as="geometry">
            <mxPoint x="260" y="60" as="sourcePoint" />
          </mxGeometry>
        </mxCell>
        <mxCell id="CfJrtq1wyNXg976miCfc-1" value="START" style="rounded=1;whiteSpace=wrap;html=1;" vertex="1" parent="1">
          <mxGeometry x="200" width="120" height="60" as="geometry" />
        </mxCell>
        <mxCell id="CfJrtq1wyNXg976miCfc-5" value="" style="edgeStyle=orthogonalEdgeStyle;rounded=0;orthogonalLoop=1;jettySize=auto;html=1;" edge="1" parent="1" source="CfJrtq1wyNXg976miCfc-2" target="CfJrtq1wyNXg976miCfc-4">
          <mxGeometry relative="1" as="geometry" />
        </mxCell>
        <mxCell id="CfJrtq1wyNXg976miCfc-2" value="string array1 =&amp;nbsp;{&lt;span style=&quot;font-family: Menlo, Monaco, &amp;quot;Courier New&amp;quot;, monospace; color: rgb(206, 145, 120);&quot;&gt;&quot;Hello&quot;&lt;/span&gt;&lt;span style=&quot;background-color: rgb(31, 31, 31); color: rgb(204, 204, 204); font-family: Menlo, Monaco, &amp;quot;Courier New&amp;quot;, monospace;&quot;&gt;, &lt;/span&gt;&lt;span style=&quot;font-family: Menlo, Monaco, &amp;quot;Courier New&amp;quot;, monospace; color: rgb(206, 145, 120);&quot;&gt;&quot;2&quot;&lt;/span&gt;&lt;span style=&quot;background-color: rgb(31, 31, 31); color: rgb(204, 204, 204); font-family: Menlo, Monaco, &amp;quot;Courier New&amp;quot;, monospace;&quot;&gt;, &lt;/span&gt;&lt;span style=&quot;font-family: Menlo, Monaco, &amp;quot;Courier New&amp;quot;, monospace; color: rgb(206, 145, 120);&quot;&gt;&quot;world&quot;&lt;/span&gt;&lt;span style=&quot;background-color: rgb(31, 31, 31); color: rgb(204, 204, 204); font-family: Menlo, Monaco, &amp;quot;Courier New&amp;quot;, monospace;&quot;&gt;, &lt;/span&gt;&lt;span style=&quot;font-family: Menlo, Monaco, &amp;quot;Courier New&amp;quot;, monospace; color: rgb(206, 145, 120);&quot;&gt;&quot;:-)&quot;&lt;/span&gt;&lt;font style=&quot;&quot; color=&quot;#cccccc&quot;&gt;&lt;font face=&quot;Menlo, Monaco, Courier New, monospace&quot;&gt;&lt;span style=&quot;background-color: rgb(31, 31, 31);&quot;&gt;}&lt;br&gt;&lt;/span&gt;&lt;/font&gt;&lt;/font&gt;string array2 = []&lt;br&gt;count = 0" style="rounded=0;whiteSpace=wrap;html=1;" vertex="1" parent="1">
          <mxGeometry x="135" y="120" width="250" height="60" as="geometry" />
        </mxCell>
        <mxCell id="CfJrtq1wyNXg976miCfc-7" value="" style="edgeStyle=orthogonalEdgeStyle;rounded=0;orthogonalLoop=1;jettySize=auto;html=1;" edge="1" parent="1" source="CfJrtq1wyNXg976miCfc-4" target="CfJrtq1wyNXg976miCfc-6">
          <mxGeometry relative="1" as="geometry" />
        </mxCell>
        <mxCell id="CfJrtq1wyNXg976miCfc-8" value="true" style="edgeLabel;html=1;align=center;verticalAlign=middle;resizable=0;points=[];" vertex="1" connectable="0" parent="CfJrtq1wyNXg976miCfc-7">
          <mxGeometry x="-0.2" y="1" relative="1" as="geometry">
            <mxPoint as="offset" />
          </mxGeometry>
        </mxCell>
        <mxCell id="CfJrtq1wyNXg976miCfc-14" value="false" style="edgeStyle=orthogonalEdgeStyle;rounded=0;orthogonalLoop=1;jettySize=auto;html=1;" edge="1" parent="1" source="CfJrtq1wyNXg976miCfc-4" target="CfJrtq1wyNXg976miCfc-13">
          <mxGeometry relative="1" as="geometry" />
        </mxCell>
        <mxCell id="CfJrtq1wyNXg976miCfc-4" value="i &amp;lt; array1.Lenght" style="rhombus;whiteSpace=wrap;html=1;" vertex="1" parent="1">
          <mxGeometry x="190" y="240" width="140" height="80" as="geometry" />
        </mxCell>
        <mxCell id="CfJrtq1wyNXg976miCfc-11" value="true" style="edgeStyle=orthogonalEdgeStyle;rounded=0;orthogonalLoop=1;jettySize=auto;html=1;" edge="1" parent="1" source="CfJrtq1wyNXg976miCfc-6" target="CfJrtq1wyNXg976miCfc-9">
          <mxGeometry relative="1" as="geometry" />
        </mxCell>
        <mxCell id="CfJrtq1wyNXg976miCfc-12" value="false" style="edgeStyle=orthogonalEdgeStyle;rounded=0;orthogonalLoop=1;jettySize=auto;html=1;exitX=0;exitY=0.5;exitDx=0;exitDy=0;" edge="1" parent="1" source="CfJrtq1wyNXg976miCfc-6">
          <mxGeometry x="-0.5013" relative="1" as="geometry">
            <mxPoint x="190" y="280" as="targetPoint" />
            <mxPoint as="offset" />
          </mxGeometry>
        </mxCell>
        <mxCell id="CfJrtq1wyNXg976miCfc-6" value="array1[i].Lenght &amp;lt;= 3" style="rhombus;whiteSpace=wrap;html=1;" vertex="1" parent="1">
          <mxGeometry x="170" y="380" width="180" height="80" as="geometry" />
        </mxCell>
        <mxCell id="CfJrtq1wyNXg976miCfc-10" style="edgeStyle=orthogonalEdgeStyle;rounded=0;orthogonalLoop=1;jettySize=auto;html=1;exitX=0;exitY=0.5;exitDx=0;exitDy=0;entryX=0;entryY=0.5;entryDx=0;entryDy=0;" edge="1" parent="1" source="CfJrtq1wyNXg976miCfc-9" target="CfJrtq1wyNXg976miCfc-4">
          <mxGeometry relative="1" as="geometry">
            <Array as="points">
              <mxPoint x="10" y="540" />
              <mxPoint x="10" y="280" />
            </Array>
          </mxGeometry>
        </mxCell>
        <mxCell id="CfJrtq1wyNXg976miCfc-9" value="array2[count] = array1[i]&lt;br&gt;count++" style="rounded=0;whiteSpace=wrap;html=1;" vertex="1" parent="1">
          <mxGeometry x="172" y="510" width="176" height="60" as="geometry" />
        </mxCell>
        <mxCell id="CfJrtq1wyNXg976miCfc-17" value="" style="edgeStyle=orthogonalEdgeStyle;rounded=0;orthogonalLoop=1;jettySize=auto;html=1;" edge="1" parent="1" source="CfJrtq1wyNXg976miCfc-13" target="CfJrtq1wyNXg976miCfc-16">
          <mxGeometry relative="1" as="geometry" />
        </mxCell>
        <mxCell id="CfJrtq1wyNXg976miCfc-13" value="PrintArray2" style="rounded=0;whiteSpace=wrap;html=1;" vertex="1" parent="1">
          <mxGeometry x="380" y="250" width="120" height="60" as="geometry" />
        </mxCell>
        <mxCell id="CfJrtq1wyNXg976miCfc-16" value="STOP" style="rounded=1;whiteSpace=wrap;html=1;" vertex="1" parent="1">
          <mxGeometry x="380" y="370" width="120" height="60" as="geometry" />
        </mxCell>
      </root>
    </mxGraphModel>
  </diagram>
</mxfile>
